<?xml version="1.0" encoding="UTF-8" standalone="no"?>
<!-- Created with Inkscape (http://www.inkscape.org/) -->

<svg
   xmlns:dc="http://purl.org/dc/elements/1.1/"
   xmlns:cc="http://creativecommons.org/ns#"
   xmlns:rdf="http://www.w3.org/1999/02/22-rdf-syntax-ns#"
   xmlns:svg="http://www.w3.org/2000/svg"
   xmlns="http://www.w3.org/2000/svg"
   xmlns:xlink="http://www.w3.org/1999/xlink"
   xmlns:sodipodi="http://sodipodi.sourceforge.net/DTD/sodipodi-0.dtd"
   xmlns:inkscape="http://www.inkscape.org/namespaces/inkscape"
   width="16px"
   height="16px"
   id="svg2513"
   sodipodi:version="0.32"
   inkscape:version="0.48.1 "
   sodipodi:docname="ceb.svg"
   inkscape:output_extension="org.inkscape.output.svg.inkscape"
   inkscape:export-filename="D:\Projects\ceb\ceb\images\ceb_64x64.png"
   inkscape:export-xdpi="360"
   inkscape:export-ydpi="360"
   version="1.1">
  <defs
     id="defs2515">
    <inkscape:perspective
       sodipodi:type="inkscape:persp3d"
       inkscape:vp_x="0 : 8 : 1"
       inkscape:vp_y="0 : 1000 : 0"
       inkscape:vp_z="16 : 8 : 1"
       inkscape:persp3d-origin="8 : 5.3333333 : 1"
       id="perspective2521" />
    <inkscape:perspective
       id="perspective2567"
       inkscape:persp3d-origin="372.04724 : 350.78739 : 1"
       inkscape:vp_z="744.09448 : 526.18109 : 1"
       inkscape:vp_y="0 : 1000 : 0"
       inkscape:vp_x="0 : 526.18109 : 1"
       sodipodi:type="inkscape:persp3d" />
    <inkscape:perspective
       id="perspective5000"
       inkscape:persp3d-origin="372.04724 : 350.78739 : 1"
       inkscape:vp_z="744.09448 : 526.18109 : 1"
       inkscape:vp_y="0 : 1000 : 0"
       inkscape:vp_x="0 : 526.18109 : 1"
       sodipodi:type="inkscape:persp3d" />
  </defs>
  <sodipodi:namedview
     id="base"
     pagecolor="#ffffff"
     bordercolor="#666666"
     borderopacity="1.0"
     inkscape:pageopacity="0.0"
     inkscape:pageshadow="2"
     inkscape:zoom="22.197802"
     inkscape:cx="-0.13726582"
     inkscape:cy="7.9638469"
     inkscape:current-layer="layer1"
     showgrid="true"
     inkscape:grid-bbox="true"
     inkscape:document-units="px"
     inkscape:window-width="1280"
     inkscape:window-height="978"
     inkscape:window-x="0"
     inkscape:window-y="46"
     inkscape:window-maximized="0" />
  <metadata
     id="metadata2518">
    <rdf:RDF>
      <cc:Work
         rdf:about="">
        <dc:format>image/svg+xml</dc:format>
        <dc:type
           rdf:resource="http://purl.org/dc/dcmitype/StillImage" />
        <dc:title></dc:title>
      </cc:Work>
    </rdf:RDF>
  </metadata>
  <g
     inkscape:groupmode="layer"
     id="layer2"
     inkscape:label="fond"
     style="display:none">
    <image
       sodipodi:absref="D:\Projects\ceb\ceb\images\Projects/cebmtpchat/ceb/ceb.ico"
       xlink:href="Projects/cebmtpchat/ceb/ceb.ico"
       width="16"
       height="16"
       id="image5002"
       x="0.018811747"
       y="0.071287036" />
  </g>
  <g
     id="layer1"
     inkscape:label="Layer 1"
     inkscape:groupmode="layer"
     style="display:inline">
    <path
       style="fill:#955428;fill-opacity:1;fill-rule:evenodd;stroke:none;opacity:1"
       d="M 0.18019799,3.070792 C 0.80641362,2.4195452 2.9370929,1.1710364 3.8292079,1.3138613 5.457708,1.5745791 6.2541044,2.4748335 7.7485149,2.8905939 9.0792046,3.2608055 10.707244,1.424823 12.073267,1.6292078 c 1.13808,0.1702799 3.631065,0.8954034 4.009406,1.9821782 0.37436,1.0753394 0.325689,2.8178431 0.360396,4.009406 0.05232,1.7961192 0.504335,5.070681 -1.216336,5.40594 -1.937815,0.377568 -4.6852,2.117426 -6.5321785,1.93713 C 6.514178,14.75102 3.5147042,15.132801 1.5316832,13.792575 0.00514335,12.760861 -1.0475932,10.489422 -0.85594061,8.6569306 -0.70479309,7.2117298 -0.7417875,4.029631 0.18019799,3.070792 z"
       id="path4953"
       sodipodi:nodetypes="cssssssssss"
       inkscape:connector-curvature="0"
       transform="matrix(0.91146624,0,0,0.8539218,0.87326592,1.1439906)" />
    <path
       style="fill:#ccb28c;fill-opacity:1;fill-rule:evenodd;stroke:#5e2b00;stroke-width:0.66166872;stroke-linecap:butt;stroke-linejoin:miter;stroke-miterlimit:4;stroke-opacity:1;stroke-dasharray:none"
       d="M 9.94777,5.9204571 C 9.235591,5.7236548 6.5841782,5.4507666 6.1290871,6.1897384 5.8151277,6.6995421 5.8464915,8.6017467 5.8416594,9.1903012 c -0.00616,0.7502069 -0.196251,2.6334578 0.2874277,3.2313758 0.4949941,0.611906 1.2549795,0.445496 1.970933,0.461624 0.6914889,0.01558 1.8209809,0.07873 2.1351779,-0.230812 0.365112,-0.359705 0.284863,-0.94991 -0.08212,-1.307938 C 9.751243,10.952527 7.7578605,11.471643 7.4019813,11.07527 7.2275339,10.880973 7.0867166,10.057568 7.6529934,9.9025521 8.39891,9.6983606 9.507093,9.9755885 9.865648,9.7288635 10.129421,9.5473593 10.117219,8.6276451 9.724885,8.4779822 9.501633,8.3928182 8.437349,8.4694416 7.8683682,8.4332219 7.3291182,8.3988948 7.4900362,8.040609 7.5251646,7.651551 7.5678488,7.1788087 9.487471,7.7152271 10.153075,7.3053323 10.585898,7.0387896 10.659949,6.1172593 9.94777,5.9204571 z"
       id="path4917"
       sodipodi:nodetypes="csssssssssssssz"
       inkscape:connector-curvature="0" />
    <path
       style="fill:#ccb28c;fill-opacity:1;fill-rule:evenodd;stroke:#5e2b00;stroke-width:0.66166872;stroke-linecap:round;stroke-linejoin:round;stroke-miterlimit:4;stroke-opacity:1;stroke-dasharray:none"
       d="m 12.440821,3.9521568 c -2.850406,0.011737 -2.281059,1.4879223 -2.322322,3.5428772 -0.0588,2.966815 -0.559508,4.029807 2.2402,4.054754 3.321421,0.02923 2.658974,-1.398131 2.733666,-2.3222862 0.0667,-0.825229 -0.163523,-1.4443856 -0.902555,-1.9899654 0.830569,-1.0457521 0.827126,-1.4789557 0.311061,-2.2017022 -0.475377,-0.6657628 -1.200072,-1.0883668 -2.06005,-1.0836774 z m -0.519355,1.8423257 c 0.443522,-0.3027069 1.081687,-0.1425552 1.07385,0.3836307 -0.0073,0.4887481 -0.609572,0.775144 -0.906278,0.4692343 C 11.697892,6.2440684 11.500341,6.0819047 11.921466,5.7944825 z M 12.1671,8.4612444 c 0.743592,0.1153644 1.065415,0.061307 1.189248,1.1585542 0.0742,0.6574274 -1.432773,0.7705194 -1.530315,0.1347996 C 11.753073,9.2790879 11.661219,8.3827597 12.1671,8.4612444 z"
       id="path4923"
       sodipodi:nodetypes="cssscsccssscsss"
       inkscape:connector-curvature="0" />
    <path
       style="fill:#ccb28c;fill-opacity:1;fill-rule:evenodd;stroke:#5e2b00;stroke-width:0.66166872;stroke-linecap:butt;stroke-linejoin:miter;stroke-miterlimit:4;stroke-opacity:1;stroke-dasharray:none"
       d="M 5.1846817,3.9200818 C 3.336932,3.9393162 2.0743032,3.881613 1.6021005,4.6365624 1.1298978,5.3915116 1.2017547,7.1129885 1.2017547,7.4592073 c 0,0.3462187 -0.1437139,1.9138204 0.3284888,2.7024297 0.4722027,0.788609 1.7245663,0.798226 3.5312548,0.798226 1.3550165,0 1.3027242,-1.6008458 0.2874278,-1.6156867 C 4.758516,9.3355461 3.421272,9.40535 3.1597467,9.1158139 2.8982215,8.8262777 2.9984854,8.4015725 3.0084432,7.651551 3.0189868,6.8981471 2.9723155,5.9687576 3.3544226,5.799945 3.8119249,5.5978232 4.9329299,5.4755043 5.5131705,5.4588321 6.2312754,5.4381985 6.498637,3.9585506 5.1846817,3.9200818 z"
       id="path2581"
       sodipodi:nodetypes="csssssssssc"
       inkscape:connector-curvature="0" />
  </g>
</svg>
