/* XPM */
static char * ceb_xpm[] = {
"32 32 140 2",
"  	c None",
". 	c #673207",
"+ 	c #733B0F",
"@ 	c #693308",
"# 	c #7D4216",
"$ 	c #935226",
"% 	c #663106",
"& 	c #6E360C",
"* 	c #86491D",
"= 	c #955428",
"- 	c #8D5328",
"; 	c #99693F",
"> 	c #683207",
", 	c #743C11",
"' 	c #8E4F23",
") 	c #BC966E",
"! 	c #693408",
"~ 	c #7E4317",
"{ 	c #6A3408",
"] 	c #82461A",
"^ 	c #915227",
"/ 	c #7D4622",
"( 	c #7B4521",
"_ 	c #7E4622",
": 	c #7F4722",
"< 	c #804823",
"[ 	c #824823",
"} 	c #834923",
"| 	c #844A24",
"1 	c #834A23",
"2 	c #854A23",
"3 	c #884C25",
"4 	c #894D25",
"5 	c #8A4E25",
"6 	c #8C4E26",
"7 	c #8D4F26",
"8 	c #8E5026",
"9 	c #8F5127",
"0 	c #915127",
"a 	c #925227",
"b 	c #935328",
"c 	c #945428",
"d 	c #84471B",
"e 	c #633B1C",
"f 	c #664426",
"g 	c #614125",
"h 	c #604024",
"i 	c #5C371A",
"j 	c #7A4421",
"k 	c #5E381C",
"l 	c #5F3F22",
"m 	c #905127",
"n 	c #C4A882",
"o 	c #C4A782",
"p 	c #8C4F26",
"q 	c #83471B",
"r 	c #624125",
"s 	c #C5A882",
"t 	c #854B24",
"u 	c #864B24",
"v 	c #634123",
"w 	c #C6A882",
"x 	c #C6A982",
"y 	c #C7A982",
"z 	c #654224",
"A 	c #664427",
"B 	c #806040",
"C 	c #674427",
"D 	c #664326",
"E 	c #683E1D",
"F 	c #664324",
"G 	c #765435",
"H 	c #765436",
"I 	c #C8A982",
"J 	c #C8AA83",
"K 	c #694525",
"L 	c #A65E2C",
"M 	c #9A5729",
"N 	c #975529",
"O 	c #995729",
"P 	c #9B582A",
"Q 	c #6A3F1F",
"R 	c #684425",
"S 	c #6A4525",
"T 	c #6A4625",
"U 	c #724421",
"V 	c #6B4625",
"W 	c #C9AA83",
"X 	c #975528",
"Y 	c #8A4B1E",
"Z 	c #6A4628",
"` 	c #6B4728",
" .	c #AD622E",
"..	c #684527",
"+.	c #755335",
"@.	c #745335",
"#.	c #693F1F",
"$.	c #683F1E",
"%.	c #83471C",
"&.	c #624226",
"*.	c #874C24",
"=.	c #644224",
"-.	c #935327",
";.	c #81461D",
">.	c #705134",
",.	c #5E391C",
"'.	c #603F22",
").	c #614023",
"!.	c #82461C",
"~.	c #624023",
"{.	c #8A4D25",
"].	c #824923",
"^.	c #735335",
"/.	c #624123",
"(.	c #5F391C",
"_.	c #694627",
":.	c #6C4728",
"<.	c #A9602D",
"[.	c #A55D2C",
"}.	c #A15B2B",
"|.	c #9D592A",
"1.	c #644123",
"2.	c #674527",
"3.	c #846241",
"4.	c #6B4627",
"5.	c #724420",
"6.	c #775536",
"7.	c #674424",
"8.	c #693F1E",
"9.	c #C8AA82",
"0.	c #714420",
"a.	c #783E13",
"b.	c #8C4C1F",
"c.	c #8D4D1F",
"d.	c #8B4B1E",
"e.	c #894B1E",
"f.	c #884A1D",
"g.	c #87491C",
"h.	c #86481C",
"i.	c #85481B",
"                                                                ",
"                                                                ",
"                            . + + .                             ",
"                        @ # $ $ $ $ # @                         ",
"                  % & * = = - ; ; - = = * & %                   ",
"              > , ' = = = $ ; ) ) ; $ = = = ' , >               ",
"          ! ~ $ = = = = = $ ; ) ) ; $ = = = = = $ ~ {           ",
"    % & * = = = = = = = = = - ; ; - = = = = = = = = = * & %     ",
"    ] = = ^ / ( / _ : < [ } | 1 2 3 4 5 6 7 8 9 0 a b c = ]     ",
"    d e f g g g g h i j j j j j j j j k l l l l l l k j m d     ",
"    d f n o o o o o h j j j j j j j j l o o o o o o l _ p d     ",
"    q r o o o n s s r | t u 3 4 5 p 7 v w x x y y y z = = d     ",
"    d A y y B C C D E = = = = = = = = F y y G H I J K L M d     ",
"    d C y y C = N O P Q R R K K S T U V W W V V W W K X = d     ",
"    Y Z J W `  . . . .V W W W W W W V V W W V V W y z = = d     ",
"    d ..y y ..M M M O F y y y y y y F F y y +.@.y y @.z #.d     ",
"    d C y y C = = = = z y y @.z z z $.z y y y y y y y y z d     ",
"    d C y y C = = = = z y y z = = = = z y y y y y y y y z d     ",
"    %.g o s &.1 t *.4 v w w =.-.= = = z y y @.z z @.y y z d     ",
"    ;.g o o g j j j j l o o >.l l l ,.'.s s ).*.5 z y y z d     ",
"    !.&.n o g j j j j l o o o o o o l l o o l j j ~.y y z d     ",
"    d C y y f 8 {.u ].'.o o o o o o l l o o l j j l s y z d     ",
"    d C y y C = = = = z y x ^./.~.).(.l o o l j j l o s z d     ",
"    Y _.y y C = = = = z y y z = = = = z x w /.u } '.o o /.d     ",
"    d Z W W :.<.[.}.|.F y y z = = = = z y y z = = z y x 1.d     ",
"    d 2.W W 3.:.:.4.5.V W W 6.R 7.F 8.z y y @.z z @.y y z d     ",
"    d C I W W W W W 4.V W W W W W W V S 9.y y y y y y y z d     ",
"    d D y J W W W W 4.V W W W W W W V V W W W J I y y y z d     ",
"    d E D ..:.:.:.4.5.U V V V V V V 0.U S S S S S K K 7.Q d     ",
"    a.d d d b.c.b.d.e.f.g.h.i.d d d d d d d d d d d d d d a.    ",
"                                                                ",
"                                                                "};
