/* XPM */
static char * ceb_xpm[] = {
"32 32 227 2",
"  	c None",
". 	c #955328",
"+ 	c #955428",
"@ 	c #965329",
"# 	c #945428",
"$ 	c #955427",
"% 	c #955528",
"& 	c #955429",
"* 	c #945427",
"= 	c #935226",
"- 	c #82461A",
"; 	c #743C10",
"> 	c #70390D",
", 	c #6E380D",
"' 	c #6D370C",
") 	c #6B360B",
"! 	c #6C360B",
"~ 	c #7C4116",
"{ 	c #915125",
"] 	c #8E4F23",
"^ 	c #81451A",
"/ 	c #783E13",
"( 	c #6F380D",
"_ 	c #723A0F",
": 	c #804519",
"< 	c #905024",
"[ 	c #6A350A",
"} 	c #602D02",
"| 	c #77491F",
"1 	c #865C33",
"2 	c #8A6138",
"3 	c #8E663D",
"4 	c #926B42",
"5 	c #643107",
"6 	c #753C11",
"7 	c #8A4B20",
"8 	c #612E03",
"9 	c #602D03",
"0 	c #6F4015",
"a 	c #83582F",
"b 	c #794C22",
"c 	c #612F04",
"d 	c #622E03",
"e 	c #86491D",
"f 	c #68370C",
"g 	c #BFA37C",
"h 	c #CCB28C",
"i 	c #683409",
"j 	c #905125",
"k 	c #643005",
"l 	c #80552C",
"m 	c #CAAF89",
"n 	c #C9AE88",
"o 	c #885F36",
"p 	c #5F2C02",
"q 	c #83471B",
"r 	c #8A6239",
"s 	c #C7AC85",
"t 	c #B5966F",
"u 	c #A38058",
"v 	c #916A41",
"w 	c #7E5329",
"x 	c #773D12",
"y 	c #935327",
"z 	c #894B1F",
"A 	c #8A4C20",
"B 	c #85481C",
"C 	c #5E2B00",
"D 	c #C6AA84",
"E 	c #C9AF89",
"F 	c #B69871",
"G 	c #BB9D77",
"H 	c #673308",
"I 	c #A6835B",
"J 	c #C7AC86",
"K 	c #653308",
"L 	c #69350A",
"M 	c #71390E",
"N 	c #7E4317",
"O 	c #793F14",
"P 	c #633005",
"Q 	c #643208",
"R 	c #714117",
"S 	c #B6966F",
"T 	c #B69770",
"U 	c #BC9F78",
"V 	c #9F7A52",
"W 	c #8C4D22",
"X 	c #7C4216",
"Y 	c #9A744C",
"Z 	c #C1A57E",
"` 	c #BFA27B",
" .	c #B3936C",
"..	c #A6845C",
"+.	c #7D5027",
"@.	c #6B3B10",
"#.	c #733B0F",
"$.	c #946E45",
"%.	c #AB8A62",
"&.	c #8C4D21",
"*.	c #884B1F",
"=.	c #8C633A",
"-.	c #7B4E25",
";.	c #99734B",
">.	c #69390E",
",.	c #977148",
"'.	c #C2A57F",
").	c #CBB18B",
"!.	c #704016",
"~.	c #70390E",
"{.	c #965427",
"].	c #884A1E",
"^.	c #C4A882",
"/.	c #875E35",
"(.	c #8F673F",
"_.	c #BA9C75",
":.	c #82572E",
"<.	c #784A20",
"[.	c #794B21",
"}.	c #7A4D23",
"|.	c #643207",
"1.	c #67360B",
"2.	c #CBB08A",
"3.	c #BC9E78",
"4.	c #804419",
"5.	c #955527",
"6.	c #874A1E",
"7.	c #C6AB85",
"8.	c #845930",
"9.	c #885E35",
"0.	c #663207",
"a.	c #763D11",
"b.	c #6E370B",
"c.	c #69380D",
"d.	c #875D34",
"e.	c #8B4D21",
"f.	c #965528",
"g.	c #C8AD87",
"h.	c #81562D",
"i.	c #723A0E",
"j.	c #A27F57",
"k.	c #6C370C",
"l.	c #673207",
"m.	c #6E3D13",
"n.	c #81572D",
"o.	c #9A754C",
"p.	c #C2A67F",
"q.	c #8B6239",
"r.	c #693409",
"s.	c #A48159",
"t.	c #9D7850",
"u.	c #8C643B",
"v.	c #896037",
"w.	c #724319",
"x.	c #6B350A",
"y.	c #784B21",
"z.	c #925226",
"A.	c #5F2C01",
"B.	c #B09068",
"C.	c #9B764E",
"D.	c #C3A781",
"E.	c #6B3A10",
"F.	c #76481E",
"G.	c #C6AB84",
"H.	c #87491E",
"I.	c #BC9E77",
"J.	c #977048",
"K.	c #965428",
"L.	c #8D653C",
"M.	c #CCB18B",
"N.	c #B99B74",
"O.	c #A7845D",
"P.	c #A6835C",
"Q.	c #A17E56",
"R.	c #6C3C11",
"S.	c #663409",
"T.	c #5F2D02",
"U.	c #6F3F15",
"V.	c #623005",
"W.	c #7C4115",
"X.	c #AF8F67",
"Y.	c #98724A",
"Z.	c #704117",
"`.	c #C5AA83",
" +	c #7F4318",
".+	c #83461B",
"++	c #7B4015",
"@+	c #653409",
"#+	c #A5825A",
"$+	c #68370D",
"%+	c #743C11",
"&+	c #6C3B11",
"*+	c #76471D",
"=+	c #936C44",
"-+	c #C5A983",
";+	c #7A4015",
">+	c #814519",
",+	c #7B4115",
"'+	c #793F13",
")+	c #7A4014",
"!+	c #A9875F",
"~+	c #84592F",
"{+	c #622F04",
"]+	c #8A6037",
"^+	c #83592F",
"/+	c #75461C",
"(+	c #68360B",
"_+	c #733B10",
":+	c #653106",
"<+	c #C0A37D",
"[+	c #B99A73",
"}+	c #773E12",
"|+	c #753C10",
"1+	c #6A390F",
"2+	c #AE8D66",
"3+	c #BDA079",
"4+	c #653309",
"5+	c #955329",
"6+	c #67350B",
"7+	c #68360C",
"8+	c #66350A",
"9+	c #8F4F24",
"0+	c #7E4318",
"a+	c #7D4217",
"b+	c #7D4216",
"c+	c #945327",
"d+	c #945328",
"                                                                ",
"                                                                ",
"                                                                ",
"                                                                ",
"                                                                ",
"          . + + + + @ #                   $ % + $               ",
"        # + + + + + + + + &           + # + + + + + + + *       ",
"    # = - ; > , ' ) ! ~ { + + + + + + + + ] ^ / ( _ : < + +     ",
"    < [ } | 1 2 3 4 2 5 6 + + + + + + + 7 8 9 0 a b c d e + +   ",
"  + / f g h h h h h h 3 i + + + + + + j k l m h h h n o p q +   ",
"  + ! r h h s t u v w } x y ] z A j + B C D h E F G h h o H +   ",
"  y } I h J K C } L M N O } C C C C } P Q h E R C 9 S h T C A + ",
"  A C U h V 8 W + + + X c Y S Z `  ...+.@.h g C #.8 $.h %.C &.+ ",
"# *.C Z h =.' + + + + #.-.h h h h h h ;.>.h h ,.} f '.).!.~.+ + ",
"{.].C ^.h /.( + + + + ) (.h _.:.<.[.}.|.1.h h h 2.E h 3.C 4.+ % ",
"5.6.C 7.h 8.> + + + + P V h 9.0.a.a.6 b.c.h h h h h h h d.d e.f.",
"f.e C g.h h.i.+ + + + 8 j.h d.8 k.' ' l.m.h h u n.o.p.h E !.6 # ",
"% ].C g h q.r.&.+ + + 8 s.h m t.(.u.v.8 w.h g.9 x.P y.h h v., % ",
"# z.A...h B.|.C C A.} } C.h h h h h D.E.F.h G.C H.e C I.h J.i + ",
"K.+ L L.h h M.N.O.P.Q.@.-.h V R.S.T.C C U.h ).V.i.W.C X.h Y.H % ",
"  + / V.u n h h h h M.:.Z.`.A.#. +.+6.++@+h h #+$+|.2 M.h =.! % ",
"  + # %+A.8 1.&+R *+f C =+-+A.;+7 6.e >+C o.h h h h h h %.|./ + ",
"    + + j - N ,+'+a.)+A.!+h ~+T.C C C C {+C c.b ]+^+/+(+C _+y   ",
"    % + + + + + + + + :+Y.h h G.<+'.^.[+V.6 X ; , M }+N 6.+ +   ",
"      + + + + + + + + |+1+2+h h h h h 3+4+W.+ + + + + + + 5+    ",
"        & + + + + + + ] ( C S.6+7+c.8+C 8 9++ + + # +           ",
"            + + + + + + + A 0+a+a+b+N z c++ # {.                ",
"                    + @ # + & % + % + + d+                      ",
"                                                                ",
"                                                                ",
"                                                                ",
"                                                                "};
