<?xml version="1.0" encoding="UTF-8" standalone="no"?>
<!-- Created with Inkscape (http://www.inkscape.org/) -->

<svg
   xmlns:osb="http://www.openswatchbook.org/uri/2009/osb"
   xmlns:dc="http://purl.org/dc/elements/1.1/"
   xmlns:cc="http://creativecommons.org/ns#"
   xmlns:rdf="http://www.w3.org/1999/02/22-rdf-syntax-ns#"
   xmlns:svg="http://www.w3.org/2000/svg"
   xmlns="http://www.w3.org/2000/svg"
   xmlns:xlink="http://www.w3.org/1999/xlink"
   xmlns:sodipodi="http://sodipodi.sourceforge.net/DTD/sodipodi-0.dtd"
   xmlns:inkscape="http://www.inkscape.org/namespaces/inkscape"
   width="16px"
   height="16px"
   id="svg2513"
   sodipodi:version="0.32"
   inkscape:version="0.48.1 "
   sodipodi:docname="ceb.svg"
   inkscape:output_extension="org.inkscape.output.svg.inkscape"
   inkscape:export-filename="D:\Projects\ceb\ceb\images\ceb_256x256.png"
   inkscape:export-xdpi="1440"
   inkscape:export-ydpi="1440"
   version="1.1">
  <defs
     id="defs2515">
    <linearGradient
       id="linearGradient5343"
       osb:paint="solid">
      <stop
         style="stop-color:#955428;stop-opacity:1;"
         offset="0"
         id="stop5345" />
    </linearGradient>
  </defs>
  <sodipodi:namedview
     id="base"
     pagecolor="#ffffff"
     bordercolor="#666666"
     borderopacity="1.0"
     inkscape:pageopacity="0.0"
     inkscape:pageshadow="2"
     inkscape:zoom="22.197802"
     inkscape:cx="0.78069279"
     inkscape:cy="7.9638469"
     inkscape:current-layer="layer1"
     showgrid="true"
     inkscape:grid-bbox="true"
     inkscape:document-units="px"
     inkscape:window-width="1280"
     inkscape:window-height="978"
     inkscape:window-x="0"
     inkscape:window-y="46"
     inkscape:window-maximized="0"
     inkscape:snap-grids="false">
    <inkscape:grid
       type="xygrid"
       id="grid3769"
       empspacing="5"
       visible="true"
       enabled="true"
       snapvisiblegridlinesonly="true" />
  </sodipodi:namedview>
  <metadata
     id="metadata2518">
    <rdf:RDF>
      <cc:Work
         rdf:about="">
        <dc:format>image/svg+xml</dc:format>
        <dc:type
           rdf:resource="http://purl.org/dc/dcmitype/StillImage" />
        <dc:title></dc:title>
      </cc:Work>
    </rdf:RDF>
  </metadata>
  <g
     inkscape:groupmode="layer"
     id="layer2"
     inkscape:label="fond"
     style="display:none">
    <image
       sodipodi:absref="D:\Projects\ceb\ceb\images\Projects/cebmtpchat/ceb/ceb.ico"
       xlink:href="Projects/cebmtpchat/ceb/ceb.ico"
       y="0.071287036"
       x="0.018811747"
       id="image5002"
       height="16"
       width="16" />
  </g>
  <g
     id="layer1"
     inkscape:label="Layer 1"
     inkscape:groupmode="layer"
     style="display:inline">
    <path
       style="fill:#955428;stroke:#5e2b00;stroke-width:0.29999999999999999;stroke-linecap:butt;stroke-linejoin:miter;stroke-opacity:1;stroke-miterlimit:4;stroke-dasharray:none;fill-opacity:1"
       d="M 8,1 1,4 1,15 15,15 15,4 z"
       id="path3771"
       inkscape:connector-curvature="0" />
    <path
       style="fill:#ad622e;fill-opacity:1;stroke:none"
       d="M 3.1623763,14.630693 1.270297,11.693564 9.4589108,13 14.369307,14.315347 z"
       id="path5373"
       inkscape:connector-curvature="0"
       sodipodi:nodetypes="ccccc" />
    <path
       style="fill:#7a4421;fill-opacity:1;stroke:none"
       d="M 1.4955446,9.0089109 1.270297,10.279208 14.594554,12.171287 12.342079,9.7747525 z"
       id="path5375"
       inkscape:connector-curvature="0"
       sodipodi:nodetypes="ccccc" />
    <path
       style="fill:#ad622e;fill-opacity:1;stroke:none"
       d="M 1.6306931,7.639604 1.270297,7.2252475 14.459406,6.0539604 12.206931,7.5044554 z"
       id="path5377"
       inkscape:connector-curvature="0"
       sodipodi:nodetypes="ccccc" />
    <path
       style="fill:#7a4421;fill-opacity:1;stroke:none"
       d="M 3.2074258,4 1.3153465,6.0361386 14.234158,5.4054455 14.05396,4.4955446 z"
       id="path5379"
       inkscape:connector-curvature="0"
       sodipodi:nodetypes="ccccc" />
    <path
       sodipodi:type="inkscape:offset"
       inkscape:radius="0.31534654"
       inkscape:original="M 2 5 L 2 14 L 5 14 L 5 13 L 3 13 L 3 6 L 5 6 L 5 5 L 2 5 z "
       style="fill:#ccb28c;fill-opacity:1;stroke:#2e1500;stroke-width:0.29999999999999999;stroke-linecap:butt;stroke-linejoin:miter;stroke-miterlimit:4;stroke-opacity:1;stroke-dasharray:none;marker-end:none;opacity:0.90000000000000002"
       id="path3946"
       d="M 1.90625,4.6875 A 0.31537807,0.31537807 0 0 0 1.6875,5 l 0,9 A 0.31537807,0.31537807 0 0 0 2,14.3125 l 3,0 A 0.31537807,0.31537807 0 0 0 5.3125,14 l 0,-1 A 0.31537807,0.31537807 0 0 0 5,12.6875 l -1.6875,0 0,-6.375 1.6875,0 A 0.31537807,0.31537807 0 0 0 5.3125,6 l 0,-1 A 0.31537807,0.31537807 0 0 0 5,4.6875 l -3,0 a 0.31537807,0.31537807 0 0 0 -0.09375,0 z" />
    <path
       sodipodi:type="inkscape:offset"
       inkscape:radius="0.28845757"
       inkscape:original="M 6 7 L 6 14 L 9 14 L 9 13 L 7 13 L 7 11 L 9 11 L 9 10 L 7 10 L 7 8 L 9 8 L 9 7 L 6 7 z "
       style="fill:#ccb28c;fill-opacity:1;stroke:#2e1500;stroke-width:0.29999999999999999;stroke-linecap:butt;stroke-linejoin:miter;stroke-miterlimit:4;stroke-opacity:1;stroke-dasharray:none;opacity:0.90000000000000002"
       id="path3948"
       d="m 5.875,6.71875 a 0.28848642,0.28848642 0 0 0 -0.09375,0.09375 0.28848642,0.28848642 0 0 0 -0.0625,0.125 0.28848642,0.28848642 0 0 0 0,0.0625 l 0,7 a 0.28848642,0.28848642 0 0 0 0.09375,0.21875 0.28848642,0.28848642 0 0 0 0.125,0.0625 0.28848642,0.28848642 0 0 0 0.0625,0 l 3,0 a 0.28848642,0.28848642 0 0 0 0.21875,-0.09375 0.28848642,0.28848642 0 0 0 0.0625,-0.125 0.28848642,0.28848642 0 0 0 0,-0.0625 l 0,-1 a 0.28848642,0.28848642 0 0 0 -0.09375,-0.21875 0.28848642,0.28848642 0 0 0 -0.125,-0.0625 0.28848642,0.28848642 0 0 0 -0.0625,0 l -1.71875,0 0,-1.4375 1.71875,0 a 0.28848642,0.28848642 0 0 0 0.21875,-0.09375 0.28848642,0.28848642 0 0 0 0.0625,-0.125 0.28848642,0.28848642 0 0 0 0,-0.0625 l 0,-1 A 0.28848642,0.28848642 0 0 0 9.1875,9.78125 0.28848642,0.28848642 0 0 0 9.0625,9.71875 0.28848642,0.28848642 0 0 0 9,9.71875 l -1.71875,0 0,-1.4375 1.71875,0 A 0.28848642,0.28848642 0 0 0 9.21875,8.1875 0.28848642,0.28848642 0 0 0 9.28125,8.0625 0.28848642,0.28848642 0 0 0 9.28125,8 l 0,-1 A 0.28848642,0.28848642 0 0 0 9.1875,6.78125 0.28848642,0.28848642 0 0 0 9.0625,6.71875 0.28848642,0.28848642 0 0 0 9,6.71875 l -3,0 a 0.28848642,0.28848642 0 0 0 -0.125,0 z" />
    <path
       sodipodi:type="inkscape:offset"
       inkscape:radius="0.27029702"
       inkscape:original="M 10 5 L 10 14 L 14 14 L 14 8 L 13 8 L 13 5 L 10 5 z M 11 6 L 12 6 L 12 8 L 11 8 L 11 6 z M 11 9 L 13 9 L 13 13 L 11 13 L 11 9 z "
       style="fill:#ccb28c;fill-opacity:1;stroke:#2e1500;stroke-width:0.29999999999999999;stroke-linecap:butt;stroke-linejoin:miter;stroke-miterlimit:4;stroke-opacity:1;stroke-dasharray:none;opacity:0.90000000000000002"
       id="path3950"
       d="M 9.96875,4.71875 A 0.27032405,0.27032405 0 0 0 9.90625,4.75 a 0.27032405,0.27032405 0 0 0 -0.125,0.09375 0.27032405,0.27032405 0 0 0 -0.0625,0.125 0.27032405,0.27032405 0 0 0 0,0.03125 l 0,9 a 0.27032405,0.27032405 0 0 0 0.03125,0.09375 0.27032405,0.27032405 0 0 0 0.09375,0.125 0.27032405,0.27032405 0 0 0 0.125,0.0625 0.27032405,0.27032405 0 0 0 0.03125,0 l 4,0 a 0.27032405,0.27032405 0 0 0 0.09375,-0.03125 0.27032405,0.27032405 0 0 0 0.125,-0.09375 0.27032405,0.27032405 0 0 0 0.0625,-0.125 0.27032405,0.27032405 0 0 0 0,-0.03125 l 0,-6 A 0.27032405,0.27032405 0 0 0 14.25,7.90625 a 0.27032405,0.27032405 0 0 0 -0.09375,-0.125 0.27032405,0.27032405 0 0 0 -0.125,-0.0625 0.27032405,0.27032405 0 0 0 -0.03125,0 l -0.71875,0 0,-2.71875 A 0.27032405,0.27032405 0 0 0 13.25,4.90625 a 0.27032405,0.27032405 0 0 0 -0.09375,-0.125 0.27032405,0.27032405 0 0 0 -0.125,-0.0625 0.27032405,0.27032405 0 0 0 -0.03125,0 l -3,0 a 0.27032405,0.27032405 0 0 0 -0.03125,0 z m 1.3125,1.5625 0.4375,0 0,1.4375 -0.4375,0 0,-1.4375 z m 0,3 1.4375,0 0,3.4375 -1.4375,0 0,-3.4375 z" />
    <path
       sodipodi:type="arc"
       style="fill:#ccb28c;fill-opacity:1;stroke:#5e2b00;stroke-width:0.10000000000000001;stroke-linecap:butt;stroke-linejoin:miter;stroke-miterlimit:4;stroke-opacity:1;stroke-dasharray:none;stroke-dashoffset:0;opacity:0.7"
       id="path3783"
       sodipodi:cx="7.5"
       sodipodi:cy="2.5"
       sodipodi:rx="0.5"
       sodipodi:ry="0.5"
       d="m 8,2.5 a 0.5,0.5 0 1 1 -1,0 0.5,0.5 0 1 1 1,0 z"
       inkscape:transform-center-x="1.3"
       inkscape:transform-center-y="-1.3"
       transform="matrix(2,0,0,2,-7,-2)" />
  </g>
</svg>
